<svg xmlns="http://www.w3.org/2000/svg" viewBox="0 0 685.98 93.61"><g id="Layer_2" data-name="Layer 2"><g id="Layer_1-2" data-name="Layer 1"><path d="M686,66.61c-.45,1.76-.78,3.56-1.37,5.27-4.05,11.64-13,17.77-24.43,20-5.9,1.16-12.24.49-18.35.09-6.46-.42-12.9-1.36-19.3-2.37-1.41-.22-3.39-1.43-3.81-2.63-1.76-5.07-3-10.32-4.63-16.06,3.36.72,6.18,1.22,8.94,1.94a104,104,0,0,0,32.39,2.85,12.06,12.06,0,0,0,9.3-5.17,8.08,8.08,0,0,0-2.44-12.09,43.27,43.27,0,0,0-8.92-3.77c-6.49-2-13.12-3.6-19.61-5.62a46.65,46.65,0,0,1-8.41-3.71c-8-4.36-10.67-11.45-10-20.14.17-2.22.46-4.44.7-6.79-.77-.06-1.42-.16-2.06-.16-7.25,0-14.49,0-21.73,0-1.88,0-2.7.51-2.7,2.54,0,21,0,42,.12,63,0,2.56,1.16,5.11,1.81,7.75H567.27c.52-4.29,1-8.47,1.52-12.65a18.71,18.71,0,0,0,.14-2.24c0-18.58,0-37.17.05-55.75,0-2.07-.56-2.69-2.65-2.66-8.91.11-17.82.14-26.72,0-2.44-.05-3.08.92-3,3,0,1.17,0,2.34,0,3.5,0,16.75-.08,33.5.09,50.25.05,5.44.77,10.88,1.19,16.47H514.15c.14-.71.24-1.41.43-2.09,2-7.17,1.54-14.53,1.56-21.84.05-21.33,0-42.67,0-64V.25H685.41C682,4,679,7.64,675.63,11.07c-8,8.23-4.17,6.87-15.94,7-5,.05-10,0-15,.05-2.8,0-5.43.54-7.53,2.68-3.25,3.3-2.56,7.62,1.76,9.45,2.82,1.19,5.81,2,8.73,2.93,7,2.3,14.1,4.39,21,6.94,9.47,3.5,15.39,10.18,16.91,20.4,0,.21.26.4.39.6Zm-150.57-49V1L516.9,17.59Z"/><path d="M31,93.61c-3.14-.67-6.34-1.14-9.42-2C9.24,88,1.8,80.11.16,67.16,0,66.1.05,65,0,63.78H18.66c.1.52.21,1.06.3,1.61a12.13,12.13,0,0,0,6.28,9.14A23,23,0,0,0,46.58,75c4.85-2.27,6.94-7.22,5.36-11.57-1.16-3.17-3.78-4.88-6.74-5.85-5.12-1.67-10.32-3.14-15.54-4.47A66.71,66.71,0,0,1,13.39,47C-1.17,38.9.12,19.46,8.85,10.57A34.57,34.57,0,0,1,30.28.45C39.51-.62,48.56,0,56.91,4.64S70,16.48,70.76,26.09a7.21,7.21,0,0,1-.16,1.33H52.22c-.71-5.12-3.53-8.66-8.42-10.09-6-1.75-12.08-1.92-17.53,1.72-5.63,3.75-5.56,11.48.45,14.55,4.59,2.34,9.83,3.38,14.76,5,5.87,2,12.05,3.41,17.52,6.21,9.28,4.75,13.63,12.85,12.91,23.41C71.24,78,66.38,85.16,57.6,89.19c-4.15,1.91-8.83,2.65-13.28,3.91-.62.18-1.25.34-1.87.51Z"/><path d="M392.48,92.24V1.53c.28-.15.42-.29.56-.29,12.73.11,25.49-.28,38.18.47,19.07,1.14,32.89,13.36,36.68,32.06,2.53,12.47,2.06,24.88-3.69,36.58-6.1,12.42-16.45,19.46-29.88,21-9.62,1.13-19.43.66-29.16.84C401,92.31,396.87,92.24,392.48,92.24Zm19.45-16.72c5.29,0,10.39.4,15.41-.08,12.21-1.18,18.92-6.74,21.28-17.27a50.88,50.88,0,0,0,0-22.77c-1.55-6.71-5-12.08-11.58-15-8.1-3.63-16.61-2.07-25.12-2.44Z"/><path d="M289.73,92.23c-7.86,0-15.09,0-22.31-.08-.72,0-1.61-1-2.11-1.76Q254.39,74.13,243.55,57.8c-.55-.82-1.12-1.63-1.84-2.69-3.06,3.72-6,7.24-8.87,10.86a4.45,4.45,0,0,0-.51,2.58c0,7,0,14,0,21v2.56H213.19V1.34h19.07V41l.57.37a18.26,18.26,0,0,0,1.93-1.79q15-18.36,30-36.77a4,4,0,0,1,3.56-1.7c6.82.09,13.64,0,21.15,0L255.65,42Z"/><path d="M202.15,92.23c-6.67,0-13.07.06-19.47-.08-.61,0-1.49-1.11-1.75-1.88-1.91-5.57-3.76-11.17-5.47-16.81a2.25,2.25,0,0,0-2.59-1.93c-9.49.07-19,.09-28.46,0-1.81,0-2.45.68-2.93,2.23-1.73,5.54-3.51,11.08-5.39,16.57-.26.76-1.17,1.83-1.8,1.84-6.39.14-12.79.09-19.55.09,1.51-4.45,2.88-8.6,4.31-12.72Q132.2,41.38,145.36,3.24a2.58,2.58,0,0,1,3-2.13c6.91.11,13.82.08,20.73,0a2.19,2.19,0,0,1,2.53,1.7q15,43.82,30.16,87.59C201.9,90.88,202,91.38,202.15,92.23ZM147.26,56.11h22.53c-3.71-11.45-7.36-22.68-11-33.91l-.49,0C154.65,33.41,151,44.63,147.26,56.11Z"/><path d="M381.65,92.24c-6.64,0-13,0-19.28,0-1.51,0-1.75-.93-2.08-2-1.82-5.61-3.69-11.2-5.41-16.84a2.27,2.27,0,0,0-2.59-1.94q-14.37.1-28.73,0c-1.58,0-2.13.6-2.57,2q-2.67,8.55-5.59,17c-.23.67-1.09,1.59-1.67,1.6-6.4.12-12.8.08-19.6.08l4.12-12Q311.54,41.66,324.82,3a2.37,2.37,0,0,1,2.67-1.9q10.49.12,21,0A2.18,2.18,0,0,1,351,2.84Q366.1,46.93,381.28,91C381.38,91.27,381.46,91.58,381.65,92.24Zm-43.43-70-.56.07c-3.64,11.22-7.28,22.45-11,33.84h22.53C345.51,44.71,341.86,33.47,338.22,22.23Z"/><path d="M103.91,1.31V92.09H84.74V1.31Z"/></g></g></svg>